<svg xmlns="http://www.w3.org/2000/svg" xmlns:xlink="http://www.w3.org/1999/xlink" viewBox="0 0 1920 1080"><defs><style>.cls-1{fill:url(#linear-gradient);}.cls-2{fill:url(#linear-gradient-2);}.cls-3{fill:url(#linear-gradient-3);}.cls-4{fill:url(#linear-gradient-4);}.cls-5{fill:url(#linear-gradient-5);}.cls-6{fill:url(#linear-gradient-6);}.cls-7{fill:url(#linear-gradient-7);}.cls-8{fill:none;stroke-miterlimit:10;stroke-width:3px;stroke:url(#linear-gradient-8);}.cls-9{fill:url(#linear-gradient-9);}.cls-10{fill:url(#linear-gradient-10);}.cls-11{fill:url(#linear-gradient-11);}.cls-12{fill:url(#linear-gradient-12);}.cls-13{fill:#fea6b6;}.cls-14{fill:url(#linear-gradient-13);}.cls-15{fill:#d22d6f;}.cls-16{fill:url(#linear-gradient-14);}.cls-17{fill:#d73e6d;}.cls-18{fill:url(#linear-gradient-15);}.cls-19{fill:url(#linear-gradient-16);}.cls-20{fill:#f9426e;}.cls-21{fill:url(#linear-gradient-17);}.cls-22{fill:url(#linear-gradient-18);}.cls-23{fill:url(#linear-gradient-19);}.cls-24{fill:url(#linear-gradient-20);}.cls-25{fill:#2c0e4a;}.cls-26{fill:#ef796d;}.cls-27{fill:url(#linear-gradient-21);}.cls-28{fill:url(#linear-gradient-22);}.cls-29{fill:url(#linear-gradient-23);}.cls-30{fill:#7e71a9;}.cls-31{fill:#9286b9;}.cls-32{fill:#feaa8b;}</style><linearGradient id="linear-gradient" x1="746.69" y1="178.14" x2="1830.65" y2="727.16" gradientUnits="userSpaceOnUse"><stop offset="0" stop-color="#d4145a"/><stop offset="0.01" stop-color="#cd165d"/><stop offset="0.07" stop-color="#a12074"/><stop offset="0.13" stop-color="#812784"/><stop offset="0.17" stop-color="#6d2b8d"/><stop offset="0.21" stop-color="#662d91"/><stop offset="1" stop-color="#333"/></linearGradient><linearGradient id="linear-gradient-2" x1="1389" y1="916.35" x2="1486.31" y2="916.35" gradientUnits="userSpaceOnUse"><stop offset="0" stop-color="#1b1464"/><stop offset="0.01" stop-color="#1b1766"/><stop offset="0.18" stop-color="#1f448c"/><stop offset="0.35" stop-color="#2369ab"/><stop offset="0.51" stop-color="#2686c3"/><stop offset="0.68" stop-color="#279ad4"/><stop offset="0.84" stop-color="#29a7df"/><stop offset="1" stop-color="#29abe2"/></linearGradient><linearGradient id="linear-gradient-3" x1="830.48" y1="429.66" x2="890.41" y2="458.46" gradientUnits="userSpaceOnUse"><stop offset="0" stop-color="#fcee21"/><stop offset="0.04" stop-color="#dce226"/><stop offset="0.1" stop-color="#aed22c"/><stop offset="0.16" stop-color="#85c232"/><stop offset="0.23" stop-color="#61b537"/><stop offset="0.31" stop-color="#43aa3b"/><stop offset="0.39" stop-color="#2aa13f"/><stop offset="0.48" stop-color="#179a42"/><stop offset="0.59" stop-color="#0a9644"/><stop offset="0.73" stop-color="#029345"/><stop offset="1" stop-color="#009245"/></linearGradient><linearGradient id="linear-gradient-4" x1="995" y1="244.88" x2="1067" y2="244.88" gradientUnits="userSpaceOnUse"><stop offset="0.01" stop-color="#0071bc"/><stop offset="0.11" stop-color="#39b54a"/><stop offset="0.14" stop-color="#45b847"/><stop offset="0.29" stop-color="#72c43b"/><stop offset="0.43" stop-color="#97ce32"/><stop offset="0.58" stop-color="#b4d62b"/><stop offset="0.72" stop-color="#c8dc25"/><stop offset="0.86" stop-color="#d5df22"/><stop offset="1" stop-color="#d9e021"/></linearGradient><linearGradient id="linear-gradient-5" x1="1384.94" y1="183.98" x2="1427.87" y2="216.74" gradientUnits="userSpaceOnUse"><stop offset="0" stop-color="#ed1e79"/><stop offset="0.04" stop-color="#ee2a6f"/><stop offset="0.15" stop-color="#f14a56"/><stop offset="0.26" stop-color="#f36542"/><stop offset="0.39" stop-color="#f57932"/><stop offset="0.54" stop-color="#f68827"/><stop offset="0.72" stop-color="#f79020"/><stop offset="1" stop-color="#f7931e"/></linearGradient><linearGradient id="linear-gradient-6" x1="769" y1="646" x2="797" y2="646" xlink:href="#linear-gradient-4"/><linearGradient id="linear-gradient-7" x1="1122.5" y1="772.5" x2="1204.5" y2="772.5" xlink:href="#linear-gradient-5"/><linearGradient id="linear-gradient-8" x1="1088" y1="779.06" x2="1234.06" y2="779.06" gradientUnits="userSpaceOnUse"><stop offset="0" stop-color="#0071bc"/><stop offset="0.35" stop-color="#ed1e79"/><stop offset="0.37" stop-color="#ee2a6f"/><stop offset="0.44" stop-color="#f14a56"/><stop offset="0.52" stop-color="#f36542"/><stop offset="0.6" stop-color="#f57932"/><stop offset="0.7" stop-color="#f68827"/><stop offset="0.81" stop-color="#f79020"/><stop offset="1" stop-color="#f7931e"/></linearGradient><linearGradient id="linear-gradient-9" x1="1143.77" y1="426.31" x2="1170.3" y2="440.31" gradientUnits="userSpaceOnUse"><stop offset="0" stop-color="#662d91"/><stop offset="0.09" stop-color="#89298b"/><stop offset="0.18" stop-color="#a82685"/><stop offset="0.29" stop-color="#c12381"/><stop offset="0.4" stop-color="#d5217d"/><stop offset="0.53" stop-color="#e31f7b"/><stop offset="0.7" stop-color="#eb1e79"/><stop offset="1" stop-color="#ed1e79"/></linearGradient><linearGradient id="linear-gradient-10" x1="1517.36" y1="520.52" x2="1597.81" y2="487.34" gradientUnits="userSpaceOnUse"><stop offset="0" stop-color="#662d91"/><stop offset="0.04" stop-color="#6f2c8f"/><stop offset="0.26" stop-color="#9c2787"/><stop offset="0.47" stop-color="#bf2381"/><stop offset="0.67" stop-color="#d8207d"/><stop offset="0.85" stop-color="#e81f7a"/><stop offset="1" stop-color="#ed1e79"/></linearGradient><linearGradient id="linear-gradient-11" x1="1282.93" y1="613.38" x2="1306.93" y2="623.39" gradientUnits="userSpaceOnUse"><stop offset="0" stop-color="#fff"/><stop offset="0" stop-color="#fbfdfe"/><stop offset="0.05" stop-color="#cce3f2"/><stop offset="0.1" stop-color="#a1cbe6"/><stop offset="0.15" stop-color="#7bb5dc"/><stop offset="0.21" stop-color="#59a3d3"/><stop offset="0.27" stop-color="#3d93cc"/><stop offset="0.34" stop-color="#2787c6"/><stop offset="0.42" stop-color="#157dc2"/><stop offset="0.52" stop-color="#0976be"/><stop offset="0.66" stop-color="#0272bd"/><stop offset="1" stop-color="#0071bc"/></linearGradient><linearGradient id="linear-gradient-12" x1="1332.09" y1="380.64" x2="1377.88" y2="352" xlink:href="#linear-gradient-2"/><linearGradient id="linear-gradient-13" x1="983" y1="604.49" x2="1054" y2="604.49" gradientUnits="userSpaceOnUse"><stop offset="0" stop-color="#f2cfba"/><stop offset="0.07" stop-color="#d4cabb"/><stop offset="0.21" stop-color="#9cc2bc"/><stop offset="0.35" stop-color="#6cbabe"/><stop offset="0.49" stop-color="#45b4bf"/><stop offset="0.62" stop-color="#27afc0"/><stop offset="0.75" stop-color="#11acc0"/><stop offset="0.88" stop-color="#04aac1"/><stop offset="1" stop-color="#00a9c1"/></linearGradient><linearGradient id="linear-gradient-14" x1="844.71" y1="534.01" x2="1024.33" y2="534.01" gradientUnits="userSpaceOnUse"><stop offset="0" stop-color="#fe4f66"/><stop offset="0.11" stop-color="#fe6366"/><stop offset="0.27" stop-color="#fe7766"/><stop offset="0.44" stop-color="#fe8666"/><stop offset="0.66" stop-color="#fe8e66"/><stop offset="1" stop-color="#fe9166"/></linearGradient><linearGradient id="linear-gradient-15" x1="1072.13" y1="597.14" x2="1138.78" y2="597.14" gradientUnits="userSpaceOnUse"><stop offset="0" stop-color="#00d4d1"/><stop offset="0.35" stop-color="#00d5c9"/><stop offset="0.41" stop-color="#00d5c8"/><stop offset="1" stop-color="#00d6c1"/></linearGradient><linearGradient id="linear-gradient-16" x1="945.36" y1="610.85" x2="1074.73" y2="610.85" gradientUnits="userSpaceOnUse"><stop offset="0" stop-color="#f2cfba"/><stop offset="0.07" stop-color="#d4d0bb"/><stop offset="0.21" stop-color="#9cd1bc"/><stop offset="0.35" stop-color="#6cd3be"/><stop offset="0.49" stop-color="#45d4bf"/><stop offset="0.62" stop-color="#27d5c0"/><stop offset="0.75" stop-color="#11d5c0"/><stop offset="0.88" stop-color="#04d6c1"/><stop offset="1" stop-color="#00d6c1"/></linearGradient><linearGradient id="linear-gradient-17" x1="227.62" y1="893.79" x2="648.95" y2="893.79" gradientUnits="userSpaceOnUse"><stop offset="0" stop-color="#ffe17f"/><stop offset="0.15" stop-color="#ffe081"/><stop offset="1" stop-color="#ffdc88"/></linearGradient><linearGradient id="linear-gradient-18" x1="472.3" y1="715.37" x2="534" y2="715.37" gradientUnits="userSpaceOnUse"><stop offset="0" stop-color="#57364c"/><stop offset="0.16" stop-color="#45254b"/><stop offset="0.35" stop-color="#37184a"/><stop offset="0.59" stop-color="#2e104a"/><stop offset="1" stop-color="#2c0e4a"/></linearGradient><linearGradient id="linear-gradient-19" x1="261.83" y1="764.62" x2="644.93" y2="764.62" gradientUnits="userSpaceOnUse"><stop offset="0" stop-color="#4069d3"/><stop offset="0.18" stop-color="#387dda"/><stop offset="0.52" stop-color="#2b9de4"/><stop offset="0.81" stop-color="#23b1eb"/><stop offset="1" stop-color="#20b8ed"/></linearGradient><linearGradient id="linear-gradient-20" x1="474.78" y1="749.5" x2="530" y2="749.5" gradientUnits="userSpaceOnUse"><stop offset="0" stop-color="#ef816d"/><stop offset="1" stop-color="#ef816d"/></linearGradient><linearGradient id="linear-gradient-21" x1="316.08" y1="948.56" x2="407.66" y2="948.56" gradientUnits="userSpaceOnUse"><stop offset="0" stop-color="#669791"/><stop offset="0.49" stop-color="#7d6db3"/><stop offset="1" stop-color="#983ddb"/></linearGradient><linearGradient id="linear-gradient-22" x1="319.38" y1="894.07" x2="492.5" y2="894.07" gradientUnits="userSpaceOnUse"><stop offset="0" stop-color="#669791"/><stop offset="0.04" stop-color="#7091a0"/><stop offset="0.13" stop-color="#7f88b6"/><stop offset="0.23" stop-color="#8a81c7"/><stop offset="0.35" stop-color="#927dd2"/><stop offset="0.52" stop-color="#977ad9"/><stop offset="1" stop-color="#9879db"/></linearGradient><linearGradient id="linear-gradient-23" x1="642.14" y1="922.68" x2="642.64" y2="922.68" xlink:href="#linear-gradient-20"/></defs><g id="planets_and_the_space" data-name="planets and the space"><path class="cls-1" d="M1402.44,957.71a312.31,312.31,0,0,1-315.7-73.1c-29.5-28.71-53-62.9-80.54-93.52a476.65,476.65,0,0,0-166.62-119.3c-16.5-7.06-34.27-13.25-52-12.58a63.13,63.13,0,0,0-6.85.61c-1.1.16-2.21.35-3.31.57-21.38,4.27-38.63,19.58-58.26,29.07-22.18,10.71-49.77,13.45-70.86.72s-29.21-42.85-16.85-63.68c42.43-76.25,149-85.15,194-156.54a122.93,122.93,0,0,0,6.81-12.28c8.76-18.17,12.74-38.15,18.12-57.65q1.29-4.69,2.72-9.33c19.72-63.46,67.12-117.79,127.33-145.93,4.77-2.23,9.62-4.3,14.52-6.27,20.7-8.35,42.26-14.88,62.61-23.75a195,195,0,0,0,29.19-15.47c40.66-26.67,65.86-71.05,101.25-104.39,50.68-47.77,121-71,190.57-74.55s138.85,11,205.66,30.7c47.39,14,95.41,31.37,131.9,64.68,39.27,35.84,61.25,86.43,80.39,136,23.86,61.79,45.34,126.21,44.11,192.43-1.11,58.93-20.16,115.92-40.39,171.28-25.74,70.39-55,142-107.66,195.35-21.1,21.39-46.4,39.77-75.54,47.1C1597,863,1580,864,1556,869.44c-24.44,5.54-42.5,26-62.53,41.09-1.49,1.12-3,2.22-4.49,3.31-.89.64-1.77,1.28-2.67,1.9q-11.61,8.22-23.94,15.31a316.48,316.48,0,0,1-59.93,26.66"/></g><g id="Layer_6" data-name="Layer 6"><path class="cls-2" d="M1486.31,915.74q-11.61,8.22-23.94,15.31a316.48,316.48,0,0,1-59.93,26.66,49,49,0,1,1,83.87-42Z"/><path class="cls-3" d="M892,440a40,40,0,0,1-66.49,30,122.93,122.93,0,0,0,6.81-12.28c8.76-18.17,12.74-38.15,18.12-57.65l1.56,0A40,40,0,0,1,892,440Z"/><path class="cls-4" d="M1067,239a36,36,0,0,1-72,0c0-.17,0-.33,0-.5,20.7-8.35,42.26-14.88,62.61-23.75A35.93,35.93,0,0,1,1067,239Z"/><circle class="cls-5" cx="1402" cy="197" r="27"/><circle class="cls-6" cx="783" cy="646" r="14"/><path class="cls-7" d="M1123.3,780.61a41.61,41.61,0,0,1-.8-8.11,40.94,40.94,0,1,1,.8,8.11"/><path class="cls-8" d="M1121.61,772.52c-7,.17-51.67,1.59-22.11,9,32,8,157,5,129-5-6.07-2.17-14.49-3.58-24-4.47"/><circle class="cls-9" cx="1155.5" cy="432.5" r="15"/><circle class="cls-10" cx="1546.5" cy="508.5" r="43.5"/><circle class="cls-11" cx="1294" cy="618" r="13"/><circle class="cls-12" cx="1351.5" cy="368.5" r="27"/></g><g id="Layer_4" data-name="Layer 4"><path class="cls-13" d="M812.5,617.5s-14-4-19-3-6,1-9,3a45,45,0,0,0-5.34,4.51c-1.42,1.33-3.64,2.52-4.31,4.43,1.13.55,4.62,1.09,5.65.06s5-6,7-6h5c-1.32.77-7,3.3-7,5a3.49,3.49,0,0,0,1,2l6-2s15-2,17-1S812.5,617.5,812.5,617.5Z"/><path class="cls-13" d="M888.5,541.5c-4.5-4.5-17-5-17-5h-12l-7.38,5.67.44,3.13a23.6,23.6,0,0,0,.4,3.26c.23.8.82,1.09,1.47,1.53,1.76,1.19,3.58,2.3,5.44,3.33,4.89,2.72,10.58,5.39,16.3,5.32a14.06,14.06,0,0,0,2.33-.24l3-5h7s.08-12,1.54-12Z"/><path class="cls-14" d="M985,583.84c2.81.32,7.6.88,8.15,1q7.17,1.16,14.35,2.35c10.91,1.8,21.82,3.62,32.69,5.59,1.31.24,10.66,2.73,12.25,2.62,5.79-.37-6.53,30-6.53,30H1036l-36.6-28.59-10.56-8.25c-1.78-1.39-4.9-3.11-5.88-4.9Z"/><path class="cls-13" d="M875.44,665.21c-.72-.69-2.15-1.55-2.62-2.43a1.22,1.22,0,0,1-.14-.74,26.63,26.63,0,0,0-5.18,1.46c-1.55.77-3.16,1.42-4.75,2.08-1.75.72-2.84,1.89-2.12,3.9,2.16-.65,4.57-.59,6.58-1.7-1.07.59-2.31,2.76-3.34,3.66-1.62,1.4-3.38,2.64-5,4-.17.14,2.18,1.55,2.39,1.71a34.92,34.92,0,0,0,3,2.41,6.64,6.64,0,0,0,5.26.89c2.74-.91,8-9.3,9.62-10.78A29.08,29.08,0,0,0,875.44,665.21Z"/><path class="cls-15" d="M885,553.5c-2,4.88-4.86,12.68-7,18.41-3,7.89-6.39,15.87-8.39,24.06a1.32,1.32,0,0,1-.13.38c-.54.95-3.58,1.49-4.57,1.85q-2.68,1-5.39,1.89-5.41,1.88-10.87,3.65c-6.66,2.18-13.36,4.28-20,6.42-3.73,1.2-7.46,2.39-11.15,3.72-2,.74-5.46,1.28-6.28,3.54l-3.66,10.09c4.62-.64,9.25-1.26,13.87-1.91,9.58-1.34,19.15-2.73,28.7-4.24,8.07-1.27,16.23-2.46,24.17-4.4,2.75-.67,4.38-1.36,5.93-3.73,1-1.57,2-3.19,3-4.81,2.52-4.27,4.93-8.59,7.33-12.93s4.73-8.64,7-12L900,580c1.44,3.67-3.61-.74-2.14,3.49l-2.61-32.27Z"/><path class="cls-15" d="M883,666l-7.5-4.5s-1.26.21-2.82.54a1.22,1.22,0,0,0,.14.74c.47.88,1.9,1.74,2.62,2.43a29.08,29.08,0,0,1,3.68,4.51.73.73,0,0,1,.38-.22C880.5,669.5,883,666,883,666Z"/><path class="cls-15" d="M924.36,611.36c-.47-4.31-1.15-8.59-1.85-12.86-1.58-9.63-3.39-19.21-5.27-28.79-.65-3.31,1.42-27.63-1.24-29.71a16.07,16.07,0,0,0-7.88-3.39,12.28,12.28,0,0,0-3.73,0c-1.69.33-2,1.61-2.91,3-2.1,3.27-4.54,6.44-5.63,10.24s0,8.59.3,12.64c.52,6.33-.38,15.06,1.71,21.08l2.36,6.86q1.68,4.89,3.4,9.77c.46,1.27.92,2.54,1.39,3.8.31.83,1.55,3,1.38,3.68a1.22,1.22,0,0,1-.18.36q-11.62,17.7-22.68,35.78c-1.93,3.15-4,6.2-5.85,9.39-.9,1.55-1.52,3.28-2.5,4.78-1.33,2.05-2.42,3.16-2.5,4.13,1.56-.33,2.82-.54,2.82-.54L883,666s-2.5,3.5-3.5,3.5a.73.73,0,0,0-.38.22l.46.63c2.31-2.31,4.29-5.05,6.48-7.49,2.41-2.69,4.86-5.34,7.26-8,6.84-7.7,13.68-15.41,20.43-23.2,2.19-2.53,4.38-5.06,6.52-7.64,2-2.38,4.56-4.59,4.47-7.93C924.7,614.48,924.54,612.91,924.36,611.36Z"/><path class="cls-16" d="M852.58,548.82a8.38,8.38,0,0,1-1.67.49,7.35,7.35,0,0,1-2.43,0A4.48,4.48,0,0,1,845,546a12.17,12.17,0,0,1,.54-6.46c.38-1.26-.16-4.82,7-13,7.51-8.59,11.27-12.88,17-14,10.32-2,13.18,8.74,25,9,6.28.14,10.9-3.27,15.46-7.15,5.11-4.35,12.2-8.65,19-5.87s13.67,6.08,20.53,9c7.77,3.33,11.68,5,13,5,12.55.1,14.84-16.06,30-20,8.55-2.22,19.51-.12,26,7,8,8.72,5.7,21.13,5,25a36.9,36.9,0,0,1-11,20c-12.39,11.63-28.4,10.3-32,10-9.19-.76-9.81-5.85-19-6-4.78-.08-9.52,1.28-19,4-3.35,1-6.65,2.07-10,3.15-10.06,3.29-17.08-5.43-23-12.15s-5.63-9.07-10-11c-4.9-2.16-6.18.48-14-2-3.23-1-6.68-2.65-9-1-1.07.76-1,1.55-2,2-2.6,1.13-4.76-3.26-8-3-2.18.18-3.4,2.45-4.51,4a22.91,22.91,0,0,1-3.07,3.73,12.09,12.09,0,0,1-2,1.54,3.09,3.09,0,0,1-2.19.61A4.57,4.57,0,0,0,852.58,548.82Z"/><path class="cls-17" d="M1157.5,564.5c-.51.51-3.33,1.68-7.64,3.27l5.1,13.12.14.09a16.22,16.22,0,0,1,1.78,2.34c.81.92,1.64,1.82,2.49,2.71a55.08,55.08,0,0,0,13,10.36,27.09,27.09,0,0,0,3.76,1.71,5.76,5.76,0,0,1,1.32.39C1177.42,598.36,1176.21,596.32,1157.5,564.5Z"/><path class="cls-18" d="M1073,592.25l-.25.06c-.36,11.51-.55,20.94-.62,28.64.13-.82.25-1.63.37-2.45a1.48,1.48,0,0,0,.5-.1l.31-.1a60.68,60.68,0,0,0,6.09-2.62c3.52-1.63,7-3.31,10.51-5q6.73-3.24,13.45-6.52,7.46-3.63,14.92-7.22t14.93-7.08l5.57-2.57-5-14C1111.39,580.83,1080.15,590.5,1073,592.25Z"/><path class="cls-13" d="M1149.86,567.77c-4.18,1.54-9.76,3.46-16,5.56l5,14c2.62-1.19,5.25-2.38,7.89-3.53,1.89-.82,3.8-1.63,5.71-2.41.94-.39,1.65-1.08,2.58-.46Z"/><path class="cls-19" d="M1057.22,574.37a19.21,19.21,0,0,0-2,5,319.59,319.59,0,0,0-7.76,35.59c-1,5.79-3,12.93-3,18.57,0-2-47.5-36.5-52-51-4.44-14.31-30-23-30-23s-6,1-17.14,42a294.86,294.86,0,0,0,51.06,39.22,191.59,191.59,0,0,0,26.46,13.52,90.35,90.35,0,0,0,11.19,3.9c7.69,2,15.17,4.92,22.93,3.91,1.56-.2,2.33-1.89,3.25-2.94,1.32-1.52,2.93-2.76,4.15-4.36a19.83,19.83,0,0,0,2.58-4.88,100.15,100.15,0,0,0,3.06-10.5,179.26,179.26,0,0,0,4.4-21.4l.06-.42.23,0s-1.23-25.91-1.23-26a24.22,24.22,0,0,0-.25-3.26c-.47-3.3-1.47-6.69-2-9.84A23.24,23.24,0,0,1,1071,573l-12.49-.86A23.78,23.78,0,0,1,1057.22,574.37Z"/><path class="cls-13" d="M1060.26,558.15c0,.92-.08,1.61-.09,1.8-.17,2.54-.32,5.08-.52,7.62a12,12,0,0,1-1.19,4.6L1071,573c.26-4.48,1.59-8.79,2.51-13.33Z"/><path class="cls-17" d="M1073.5,559.5c21-1,23-9,23-9l-35-1c-.72,0-1.08,5.64-1.24,8.65l13.2,1.55C1073.47,559.63,1073.49,559.57,1073.5,559.5Z"/><path class="cls-20" d="M887.5,553.5s-2.67,12,6.17,17.5c12.58,7.84,26.08,4.5,38.83,21.5l9,12s8.43-8.79,9.14-9.69c3-3.79,5.52-8,6-12.88A81.83,81.83,0,0,1,959,569.15c.44-1.65.69-3.35,1.24-5,.34-1,2.69-3.25,2.53-4.17s-2.67-1.28-3.54-1.44c-11.74-2.07-24.74-5.07-24.74-5.07l-45-14-2,14Z"/></g><g id="Layer_2" data-name="Layer 2"><path class="cls-21" d="M249.5,726.5c7.12,3.12-5.77,30.12,7,55,5.21,10.15,12.61,15.9,18,20,31.81,24.18,77.62,19.85,88,19,69.82-5.71,181.16,11.64,240,67,8.6,8.1,55.2,51.93,45,92-25,98.3-373.69,102.59-392,42-7.11-23.54,37-52.25,34-112a141.94,141.94,0,0,0-11-47c-8.43-18.54-14.56-19.36-27-39-6.22-9.83-35.26-55.69-19-84C237.15,731.41,245.5,724.75,249.5,726.5Z"/><path class="cls-22" d="M503,739s-2,12-6,14-13,3-14-2a58.09,58.09,0,0,1-1-10s-17-3-6-22c-1-5-.45-22.22,6-19,8,4,6,5,6,5s1-20,13-26,23-1,24,0,9,6,9,17-2,13-2,13l-18,16Z"/><path class="cls-23" d="M470.25,747.3S376.5,712.5,365.5,711.5s-74-1-97,10c-15,10,0,15,0,15s83,11,92,11,37,29,36,33-53,74-53,74-4,7-3,10,116-2,117-6,1-12,19-28,35-28,35-28,30-18,42-26,48-37,53-43c1.52-1.83,2.83-3.86,4.17-5.82,2.29-3.39,4.53-6.81,6.76-10.24q4-6.21,8-12.47t7.74-12.51c2.08-3.43,4.15-6.88,6.12-10.37a47.93,47.93,0,0,0,2.65-4.75c.31-.72.46-1.5.83-2.19a18,18,0,0,0,1-2,15.87,15.87,0,0,0,1.11-4.1c.08-.63.31-2.12-.32-2.59-1-1-5-4-7-2s-68,56-69,57-20,22-39.5,26"/><path class="cls-24" d="M530,745.52c-2.5,7-3.5,12-9.5,12s-14.7-2-16.35-1-7.41,3.79-7.41,3.79L485.5,777.5l-8-16-2.72-10L475,747c20,0,20.5,1.5,20.5,1.5l2-23,27-4Z"/><path class="cls-25" d="M483,747s-7,4-7,5,8,23,10,22,5.32-11.72,9.16-11.86-2.66,16.36-5.66,17.36-10.11,5.29-15.55-12.86c-4.45-13.14-5.45-15.14-5.45-16.14S472,745,474,746,483,747,483,747Z"/><path class="cls-26" d="M319.75,953.82c-1.69.34-3.24,1.56-5.76,4-5.82,5.52-11.87,11.25-15.11,18.74-2,4.68-1.92,8.37.79,12.76,2.46,4,6.59,9.91,11.41,9.82,4.12-.08,10.79-2.21,15-3.18,5.66-1.3,12.73-2.08,16.38-7.21,4.61-6.45,5.3-15.5,6.95-23.06-.2.9-20.8-9.62-22.84-10.38C323.36,954.05,321.48,953.47,319.75,953.82Z"/><path class="cls-27" d="M327.42,929.31S313.5,947.5,316.5,951.5s21,26,25,27,35-4,38-8,28.16-36,28.16-36l-33.16-16-42,5Z"/><path class="cls-28" d="M340.39,862.56S317.5,878.5,319.5,898.5s6,33,14,36,38,7,64,2l26-5s13-45,24-54,26-22,45-13c-7-6-5-5-5-5s-28-12-39-10-64,1-72,5C361.5,857.5,340.39,862.56,340.39,862.56Z"/><path class="cls-29" d="M489.45,863c4.42,2.5,8.59,5.82,11.13,10.23s3.27,9.63,3.49,14.72c.77,18.06-6.71,34.89-16.77,49.49-9.23,13.4-21.2,29.61-35,38.46-4.2,2.69-31.95,15.77-33.78,6.63-1.56-7.8.05-16.74.91-24.53a228.94,228.94,0,0,1,3.64-24.16c1.62-7.29,1.16-13.49,1.27-20.89.12-8-2.55-19.24.41-26.81,2-5,8.44-8.38,12.51-11.65a85.27,85.27,0,0,1,19-11.59,38.11,38.11,0,0,1,8.47-2.81c4.33-.79,8.51-.19,12.84.11,4.15.28,6.15-.16,9.83,1.69C488.07,862.21,488.76,862.58,489.45,863Z"/><path class="cls-30" d="M481,740.76a9.48,9.48,0,0,1,1.4,3.38c20.08-4.64,35.08-8.64,36.08-7.64s-6-11-6-11Z"/><path class="cls-31" d="M512.5,725.5s10,20,14,20c8-1,9-1,9-1s13-8,13-10,4-13-2-19-10-10-12-8S512.5,725.5,512.5,725.5Z"/><path class="cls-25" d="M267.41,722.26,268,736s-5.55-2.9-6.17-5.92C261,726,267.41,722.26,267.41,722.26Z"/><path class="cls-32" d="M262.44,727s-15.94-.49-17.94,4.51-2,11-1,12,8,0,8,1,2,2,2,2,11-10,11-11S262.44,727,262.44,727Z"/><path class="cls-32" d="M639.5,663.5s7-21,29-25c-7,11-10,16-10,17l6,1s-9,4-12,7a50.31,50.31,0,0,1-7.61,5.86l-.39-2.86Z"/><path class="cls-25" d="M643,674.22l-8.45-6.72s4.14-4,7-2.77C647.5,667.5,643,674.22,643,674.22Z"/></g></svg>